<mxfile host="app.diagrams.net" modified="2024-01-15T14:38:52.250Z" agent="Mozilla/5.0 (Windows NT 10.0; Win64; x64) AppleWebKit/537.36 (KHTML, like Gecko) Chrome/119.0.0.0 Safari/537.36 OPR/105.0.0.0" etag="mlCOKs2ORXk-8h2SuCuP" version="22.1.18" type="github">
  <diagram name="PÃ¡gina-1" id="kv6eIvWk4Gff51TuWEJR">
    <mxGraphModel dx="1393" dy="797" grid="1" gridSize="10" guides="1" tooltips="1" connect="1" arrows="1" fold="1" page="1" pageScale="1" pageWidth="827" pageHeight="1169" math="0" shadow="0">
      <root>
        <mxCell id="0" />
        <mxCell id="1" parent="0" />
        <mxCell id="qRzbt9dNKdTh_043oTZH-1" value="&lt;b&gt;FILM&lt;/b&gt;&lt;br&gt;film_id&lt;br&gt;title&lt;br&gt;description&lt;br&gt;release_year&lt;br&gt;language_id&lt;br&gt;original_language_id&lt;br&gt;length&lt;br&gt;country_id&lt;br&gt;replacement_cost&lt;br&gt;rating&lt;br&gt;special_features&lt;br&gt;last_update&lt;br&gt;&lt;div style=&quot;text-align: justify;&quot;&gt;&lt;/div&gt;" style="whiteSpace=wrap;html=1;aspect=fixed;" vertex="1" parent="1">
          <mxGeometry x="270" y="10" width="190" height="190" as="geometry" />
        </mxCell>
        <mxCell id="qRzbt9dNKdTh_043oTZH-2" value="&lt;b&gt;RENTAL&lt;/b&gt;&lt;br&gt;rental_id&lt;br&gt;rental_date&lt;br&gt;inventory_id&lt;br&gt;customer_id&lt;br&gt;return_date&lt;br&gt;staff_id&lt;br&gt;last_update&lt;br&gt;rental_duration&lt;br&gt;rental_rate" style="whiteSpace=wrap;html=1;aspect=fixed;" vertex="1" parent="1">
          <mxGeometry x="310" y="230" width="160" height="160" as="geometry" />
        </mxCell>
        <mxCell id="qRzbt9dNKdTh_043oTZH-3" value="&lt;b&gt;INVENTORY&lt;/b&gt;&lt;br&gt;inventory_id&lt;br&gt;film_id&lt;br&gt;store_id&lt;br&gt;last_update" style="whiteSpace=wrap;html=1;aspect=fixed;" vertex="1" parent="1">
          <mxGeometry x="490" y="10" width="100" height="100" as="geometry" />
        </mxCell>
        <mxCell id="qRzbt9dNKdTh_043oTZH-4" value="" style="endArrow=classic;startArrow=classic;html=1;rounded=0;entryX=-0.043;entryY=0.37;entryDx=0;entryDy=0;entryPerimeter=0;exitX=0.996;exitY=0.094;exitDx=0;exitDy=0;exitPerimeter=0;" edge="1" parent="1" source="qRzbt9dNKdTh_043oTZH-1" target="qRzbt9dNKdTh_043oTZH-3">
          <mxGeometry width="50" height="50" relative="1" as="geometry">
            <mxPoint x="640" y="360" as="sourcePoint" />
            <mxPoint x="690" y="310" as="targetPoint" />
          </mxGeometry>
        </mxCell>
        <mxCell id="qRzbt9dNKdTh_043oTZH-6" value="" style="endArrow=classic;startArrow=classic;html=1;rounded=0;entryX=0;entryY=0.75;entryDx=0;entryDy=0;exitX=1;exitY=0.75;exitDx=0;exitDy=0;" edge="1" parent="1" source="qRzbt9dNKdTh_043oTZH-2" target="qRzbt9dNKdTh_043oTZH-3">
          <mxGeometry width="50" height="50" relative="1" as="geometry">
            <mxPoint x="640" y="360" as="sourcePoint" />
            <mxPoint x="690" y="310" as="targetPoint" />
          </mxGeometry>
        </mxCell>
        <mxCell id="qRzbt9dNKdTh_043oTZH-7" value="&lt;b&gt;LANGUAGE&lt;/b&gt;&lt;br&gt;language_id&lt;br&gt;name&lt;br&gt;last_update" style="whiteSpace=wrap;html=1;aspect=fixed;" vertex="1" parent="1">
          <mxGeometry x="130" y="10" width="90" height="90" as="geometry" />
        </mxCell>
        <mxCell id="qRzbt9dNKdTh_043oTZH-8" value="" style="endArrow=classic;startArrow=classic;html=1;rounded=0;exitX=1;exitY=0.25;exitDx=0;exitDy=0;entryX=0.028;entryY=0.389;entryDx=0;entryDy=0;entryPerimeter=0;" edge="1" parent="1" source="qRzbt9dNKdTh_043oTZH-7" target="qRzbt9dNKdTh_043oTZH-1">
          <mxGeometry width="50" height="50" relative="1" as="geometry">
            <mxPoint x="640" y="360" as="sourcePoint" />
            <mxPoint x="690" y="310" as="targetPoint" />
          </mxGeometry>
        </mxCell>
        <mxCell id="qRzbt9dNKdTh_043oTZH-9" style="edgeStyle=orthogonalEdgeStyle;rounded=0;orthogonalLoop=1;jettySize=auto;html=1;exitX=0.5;exitY=1;exitDx=0;exitDy=0;" edge="1" parent="1" source="qRzbt9dNKdTh_043oTZH-1" target="qRzbt9dNKdTh_043oTZH-1">
          <mxGeometry relative="1" as="geometry" />
        </mxCell>
        <mxCell id="qRzbt9dNKdTh_043oTZH-11" value="&lt;b&gt;ADDRESS&lt;/b&gt;&lt;br&gt;address_id&lt;br&gt;full_address&lt;br&gt;city_id&lt;br&gt;postal_code&lt;br&gt;last_update" style="whiteSpace=wrap;html=1;aspect=fixed;" vertex="1" parent="1">
          <mxGeometry x="532.5" y="160" width="100" height="100" as="geometry" />
        </mxCell>
        <mxCell id="qRzbt9dNKdTh_043oTZH-12" value="&lt;b&gt;CITY&lt;/b&gt;&lt;br&gt;city_id&lt;br&gt;city&lt;br&gt;country_id&lt;br&gt;last_update&lt;br&gt;district" style="whiteSpace=wrap;html=1;aspect=fixed;" vertex="1" parent="1">
          <mxGeometry x="700" y="160" width="100" height="100" as="geometry" />
        </mxCell>
        <mxCell id="qRzbt9dNKdTh_043oTZH-13" value="" style="endArrow=classic;startArrow=classic;html=1;rounded=0;entryX=0;entryY=0.25;entryDx=0;entryDy=0;exitX=1;exitY=0.5;exitDx=0;exitDy=0;" edge="1" parent="1" source="qRzbt9dNKdTh_043oTZH-11" target="qRzbt9dNKdTh_043oTZH-12">
          <mxGeometry width="50" height="50" relative="1" as="geometry">
            <mxPoint x="640" y="350" as="sourcePoint" />
            <mxPoint x="690" y="300" as="targetPoint" />
          </mxGeometry>
        </mxCell>
        <mxCell id="qRzbt9dNKdTh_043oTZH-14" value="&lt;b&gt;CUSTOMER&lt;/b&gt;&lt;br&gt;customer_id&lt;br&gt;store_id&lt;br&gt;first_name&lt;br&gt;last_name&lt;br&gt;email&lt;br&gt;phone&lt;br&gt;adress_id&lt;br&gt;active&lt;br&gt;create_date&lt;br&gt;last_update" style="whiteSpace=wrap;html=1;aspect=fixed;" vertex="1" parent="1">
          <mxGeometry x="120" y="450" width="170" height="170" as="geometry" />
        </mxCell>
        <mxCell id="qRzbt9dNKdTh_043oTZH-15" value="" style="endArrow=classic;startArrow=classic;html=1;rounded=0;entryX=-0.024;entryY=0.404;entryDx=0;entryDy=0;entryPerimeter=0;exitX=0.75;exitY=0;exitDx=0;exitDy=0;" edge="1" parent="1" source="qRzbt9dNKdTh_043oTZH-14" target="qRzbt9dNKdTh_043oTZH-2">
          <mxGeometry width="50" height="50" relative="1" as="geometry">
            <mxPoint x="640" y="350" as="sourcePoint" />
            <mxPoint x="690" y="300" as="targetPoint" />
          </mxGeometry>
        </mxCell>
        <mxCell id="qRzbt9dNKdTh_043oTZH-16" value="&lt;b&gt;STORE&lt;/b&gt;&lt;br&gt;store_id&lt;br&gt;manager_staff_id&lt;br&gt;adress_id&lt;br&gt;last_update&lt;br&gt;phone_store" style="whiteSpace=wrap;html=1;aspect=fixed;" vertex="1" parent="1">
          <mxGeometry x="640" y="300" width="110" height="110" as="geometry" />
        </mxCell>
        <mxCell id="qRzbt9dNKdTh_043oTZH-17" value="" style="endArrow=classic;startArrow=classic;html=1;rounded=0;entryX=0.5;entryY=1;entryDx=0;entryDy=0;exitX=0.5;exitY=0;exitDx=0;exitDy=0;" edge="1" parent="1" source="qRzbt9dNKdTh_043oTZH-16" target="qRzbt9dNKdTh_043oTZH-12">
          <mxGeometry width="50" height="50" relative="1" as="geometry">
            <mxPoint x="640" y="350" as="sourcePoint" />
            <mxPoint x="690" y="300" as="targetPoint" />
          </mxGeometry>
        </mxCell>
        <mxCell id="qRzbt9dNKdTh_043oTZH-18" value="&lt;b&gt;PAYMENT&lt;/b&gt;&lt;br&gt;payment_id&lt;br&gt;customer_id&lt;br&gt;rental_id&lt;br&gt;amount&lt;br&gt;payment_date&lt;br&gt;last_update" style="whiteSpace=wrap;html=1;aspect=fixed;" vertex="1" parent="1">
          <mxGeometry x="325" y="430" width="110" height="110" as="geometry" />
        </mxCell>
        <mxCell id="qRzbt9dNKdTh_043oTZH-19" value="" style="endArrow=classic;startArrow=classic;html=1;rounded=0;entryX=0.5;entryY=1;entryDx=0;entryDy=0;exitX=0.5;exitY=0;exitDx=0;exitDy=0;" edge="1" parent="1" source="qRzbt9dNKdTh_043oTZH-18" target="qRzbt9dNKdTh_043oTZH-2">
          <mxGeometry width="50" height="50" relative="1" as="geometry">
            <mxPoint x="640" y="350" as="sourcePoint" />
            <mxPoint x="690" y="300" as="targetPoint" />
          </mxGeometry>
        </mxCell>
        <mxCell id="qRzbt9dNKdTh_043oTZH-20" value="" style="endArrow=classic;startArrow=classic;html=1;rounded=0;entryX=0.5;entryY=1;entryDx=0;entryDy=0;" edge="1" parent="1" source="qRzbt9dNKdTh_043oTZH-11" target="qRzbt9dNKdTh_043oTZH-3">
          <mxGeometry width="50" height="50" relative="1" as="geometry">
            <mxPoint x="640" y="350" as="sourcePoint" />
            <mxPoint x="690" y="300" as="targetPoint" />
          </mxGeometry>
        </mxCell>
        <mxCell id="qRzbt9dNKdTh_043oTZH-21" value="&lt;b&gt;FILM_ACTOR&lt;/b&gt;&lt;br&gt;actor_id&lt;br&gt;film_id&lt;br&gt;last_update&lt;br&gt;first_name&lt;br&gt;last_name" style="whiteSpace=wrap;html=1;aspect=fixed;" vertex="1" parent="1">
          <mxGeometry x="130" y="130" width="110" height="110" as="geometry" />
        </mxCell>
        <mxCell id="qRzbt9dNKdTh_043oTZH-22" value="" style="endArrow=classic;startArrow=classic;html=1;rounded=0;entryX=0;entryY=0.158;entryDx=0;entryDy=0;entryPerimeter=0;exitX=1;exitY=0;exitDx=0;exitDy=0;" edge="1" parent="1" source="qRzbt9dNKdTh_043oTZH-21" target="qRzbt9dNKdTh_043oTZH-1">
          <mxGeometry width="50" height="50" relative="1" as="geometry">
            <mxPoint x="640" y="360" as="sourcePoint" />
            <mxPoint x="690" y="310" as="targetPoint" />
          </mxGeometry>
        </mxCell>
        <mxCell id="qRzbt9dNKdTh_043oTZH-23" value="&lt;b&gt;FILM_CATEGORY&lt;/b&gt;&lt;br&gt;film_id&lt;br&gt;category_id&lt;br&gt;last_update" style="whiteSpace=wrap;html=1;aspect=fixed;" vertex="1" parent="1">
          <mxGeometry x="130" y="280" width="110" height="110" as="geometry" />
        </mxCell>
        <mxCell id="qRzbt9dNKdTh_043oTZH-24" value="" style="endArrow=classic;startArrow=classic;html=1;rounded=0;entryX=0;entryY=1;entryDx=0;entryDy=0;exitX=1;exitY=0;exitDx=0;exitDy=0;" edge="1" parent="1" source="qRzbt9dNKdTh_043oTZH-23" target="qRzbt9dNKdTh_043oTZH-1">
          <mxGeometry width="50" height="50" relative="1" as="geometry">
            <mxPoint x="640" y="360" as="sourcePoint" />
            <mxPoint x="690" y="310" as="targetPoint" />
          </mxGeometry>
        </mxCell>
        <mxCell id="qRzbt9dNKdTh_043oTZH-25" value="&lt;b&gt;STAFF&lt;/b&gt;&lt;br&gt;staff_id&lt;br&gt;first_name&lt;br&gt;last_name&lt;br&gt;address_id&lt;br&gt;picture&lt;br&gt;email&lt;br&gt;username&lt;br&gt;active&lt;br&gt;store_id&lt;br&gt;password&lt;br&gt;last_update" style="whiteSpace=wrap;html=1;aspect=fixed;" vertex="1" parent="1">
          <mxGeometry x="470" y="440" width="205" height="205" as="geometry" />
        </mxCell>
        <mxCell id="qRzbt9dNKdTh_043oTZH-26" value="" style="endArrow=classic;startArrow=classic;html=1;rounded=0;exitX=0.5;exitY=0;exitDx=0;exitDy=0;entryX=0;entryY=1;entryDx=0;entryDy=0;" edge="1" parent="1" source="qRzbt9dNKdTh_043oTZH-25" target="qRzbt9dNKdTh_043oTZH-16">
          <mxGeometry width="50" height="50" relative="1" as="geometry">
            <mxPoint x="640" y="360" as="sourcePoint" />
            <mxPoint x="690" y="310" as="targetPoint" />
          </mxGeometry>
        </mxCell>
        <mxCell id="qRzbt9dNKdTh_043oTZH-27" value="" style="endArrow=classic;startArrow=classic;html=1;rounded=0;entryX=0.5;entryY=1;entryDx=0;entryDy=0;exitX=0;exitY=0.5;exitDx=0;exitDy=0;" edge="1" parent="1" source="qRzbt9dNKdTh_043oTZH-16" target="qRzbt9dNKdTh_043oTZH-11">
          <mxGeometry width="50" height="50" relative="1" as="geometry">
            <mxPoint x="640" y="360" as="sourcePoint" />
            <mxPoint x="690" y="310" as="targetPoint" />
          </mxGeometry>
        </mxCell>
        <mxCell id="qRzbt9dNKdTh_043oTZH-28" value="" style="endArrow=classic;startArrow=classic;html=1;rounded=0;exitX=0;exitY=0.5;exitDx=0;exitDy=0;" edge="1" parent="1" source="qRzbt9dNKdTh_043oTZH-18" target="qRzbt9dNKdTh_043oTZH-14">
          <mxGeometry width="50" height="50" relative="1" as="geometry">
            <mxPoint x="640" y="360" as="sourcePoint" />
            <mxPoint x="690" y="310" as="targetPoint" />
          </mxGeometry>
        </mxCell>
        <mxCell id="qRzbt9dNKdTh_043oTZH-29" value="&lt;b&gt;CATEGORY&lt;/b&gt;&lt;br&gt;category_id&lt;br&gt;name&lt;br&gt;last_update" style="whiteSpace=wrap;html=1;aspect=fixed;" vertex="1" parent="1">
          <mxGeometry x="10" y="330" width="90" height="90" as="geometry" />
        </mxCell>
        <mxCell id="qRzbt9dNKdTh_043oTZH-30" value="" style="endArrow=classic;startArrow=classic;html=1;rounded=0;exitX=0;exitY=0.25;exitDx=0;exitDy=0;entryX=0.433;entryY=-0.011;entryDx=0;entryDy=0;entryPerimeter=0;" edge="1" parent="1" source="qRzbt9dNKdTh_043oTZH-23" target="qRzbt9dNKdTh_043oTZH-29">
          <mxGeometry width="50" height="50" relative="1" as="geometry">
            <mxPoint x="640" y="360" as="sourcePoint" />
            <mxPoint x="690" y="310" as="targetPoint" />
          </mxGeometry>
        </mxCell>
        <mxCell id="qRzbt9dNKdTh_043oTZH-31" value="" style="endArrow=classic;startArrow=classic;html=1;rounded=0;entryX=0.5;entryY=1;entryDx=0;entryDy=0;" edge="1" parent="1" source="qRzbt9dNKdTh_043oTZH-23" target="qRzbt9dNKdTh_043oTZH-21">
          <mxGeometry width="50" height="50" relative="1" as="geometry">
            <mxPoint x="640" y="360" as="sourcePoint" />
            <mxPoint x="690" y="310" as="targetPoint" />
          </mxGeometry>
        </mxCell>
        <mxCell id="qRzbt9dNKdTh_043oTZH-32" value="&lt;b&gt;COUNTRY&lt;/b&gt;&lt;br&gt;country_id&lt;br&gt;country&lt;br&gt;last_update" style="whiteSpace=wrap;html=1;aspect=fixed;" vertex="1" parent="1">
          <mxGeometry x="16" y="60" width="80" height="80" as="geometry" />
        </mxCell>
        <mxCell id="qRzbt9dNKdTh_043oTZH-33" value="" style="endArrow=classic;startArrow=classic;html=1;rounded=0;exitX=0;exitY=0.5;exitDx=0;exitDy=0;entryX=1;entryY=0.75;entryDx=0;entryDy=0;" edge="1" parent="1" source="qRzbt9dNKdTh_043oTZH-1" target="qRzbt9dNKdTh_043oTZH-32">
          <mxGeometry width="50" height="50" relative="1" as="geometry">
            <mxPoint x="640" y="360" as="sourcePoint" />
            <mxPoint x="690" y="310" as="targetPoint" />
          </mxGeometry>
        </mxCell>
      </root>
    </mxGraphModel>
  </diagram>
</mxfile>
